<?xml version="1.0" encoding="UTF-8"?>
<svg id="Layer_1" xmlns="http://www.w3.org/2000/svg" version="1.1" viewBox="0 0 265 274">
  <!-- Generator: Adobe Illustrator 29.5.1, SVG Export Plug-In . SVG Version: 2.1.0 Build 141)  -->
  <defs>
    <style>
      .st0 {
        fill: #e1b255;
      }

      .st1 {
        fill: #3b4a69;
      }
    </style>
  </defs>
  <g>
    <path d="M84.1,170.2c-4.3,0-7.6-.9-9.9-2.7-2.4-1.8-4-4.2-4.9-7.2-.9-3-1.4-6.4-1.4-10.1v-21.3c0-4.1.5-7.6,1.4-10.6.9-3,2.6-5.4,4.9-7,2.4-1.7,5.7-2.5,9.9-2.5s6.8.7,9,2.1c2.2,1.4,3.8,3.4,4.8,6,1,2.6,1.5,5.7,1.5,9.3v4.8h-8v-4.2c0-2.2-.1-4.2-.3-5.9-.2-1.7-.8-3-1.8-4-1-.9-2.7-1.4-5-1.4s-4.1.5-5.2,1.5c-1.1,1-1.8,2.5-2.1,4.3-.3,1.9-.5,4-.5,6.5v23.9c0,3,.2,5.4.7,7.2.5,1.8,1.3,3,2.5,3.8,1.1.7,2.7,1.1,4.6,1.1s3.9-.5,4.9-1.5c1-1,1.6-2.4,1.9-4.2.2-1.8.4-3.9.4-6.3v-4.5h8v4.5c0,3.7-.4,6.9-1.3,9.7-.9,2.8-2.4,5-4.6,6.6-2.2,1.6-5.3,2.3-9.2,2.3Z"/>
    <path d="M107.3,169.6v-60.3h23.3v6h-14.9v20.1h11.5v6h-11.5v28.2h-8.4Z"/>
    <path d="M136.4,169.6v-60.3h15c3.6,0,6.5.7,8.7,2,2.2,1.3,3.7,3.2,4.7,5.7,1,2.5,1.5,5.5,1.5,9s-.6,5.9-1.7,8.3c-1.1,2.3-2.8,4.1-5,5.4-2.2,1.3-4.9,1.9-8.2,1.9h-6.6v28.1h-8.4ZM144.8,135.5h3.9c2.4,0,4.3-.3,5.7-.8,1.4-.5,2.4-1.5,3-2.9.6-1.4.9-3.3.9-5.8s-.2-5.1-.6-6.6c-.4-1.5-1.3-2.6-2.6-3.2s-3.4-.9-6.3-.9h-3.9v20.2Z"/>
    <path d="M165.5,169.6l12.8-60.3h8.1l12.9,60.3h-8l-2.8-15.2h-12.3l-2.9,15.2h-7.9ZM177.4,148.4h10.1l-5.1-27.2-5,27.2Z"/>
  </g>
  <g>
    <g>
      <path class="st1" d="M132,0c42.3-.6,80,16.1,106.7,49.1,9.8,12.1,23.6,36.3,25.9,51.6.1.8.4,3.3-.7,3.3h-40.9c-1,0-3.6-7.5-4.3-9-13.6-27.8-39.3-48-70.2-53-5.6-.9-11.2-1.2-16.6-2.3V0Z"/>
      <path class="st0" d="M132,0v39.8c-2.5-.5-14.6,1.1-17.7,1.7-5.2.9-24.6,6.8-28.1,10s-2.4,1.7-3.4,2c-1.5.6-6.6,4.3-8.3,5.5-12.3,8.9-21.7,22-29,34.8s-4,9.7-5,9.7H.3c.1-4.8,2.2-9.9,3.9-14.5C24,34.7,74.3.9,132,0Z"/>
    </g>
    <g>
      <path class="st0" d="M131.4,274v-39.3c.7,0,8.3-.9,9.8-1.1,30.3-3.2,57.6-18.7,73.4-44.4,1.8-2.9,3.7-5.7,4.9-8.9.3-.5,1.9-1.4,2.3-1.4h39.3c.7,0,.9,1.7.8,2.3-.5,5.1-7.7,19.1-10.5,24-24.3,43.1-70.6,69.2-120.1,68.7Z"/>
      <path class="st1" d="M131.4,234.7v39.3c-53.3-.6-101.5-30.8-123.6-79.5s-5-11-5.3-13.3.1-1.7.7-1.7h40.9c3.3,4.4,5.7,9.5,8.9,14,18.6,26.3,46.9,38.6,78.5,41.2Z"/>
    </g>
  </g>
</svg>