<?xml version="1.0" encoding="UTF-8"?>
<svg id="Layer_1" xmlns="http://www.w3.org/2000/svg" version="1.1" viewBox="0 0 260 274">
  <!-- Generator: Adobe Illustrator 29.5.1, SVG Export Plug-In . SVG Version: 2.1.0 Build 141)  -->
  <defs>
    <style>
      .st0 {
        fill: #e1b255;
      }

      .st1 {
        fill: #3b4a69;
      }

      .st2 {
        fill: #010101;
      }
    </style>
  </defs>
  <g>
    <path class="st2" d="M84.5,168.3c-4,0-7.1-.8-9.3-2.5-2.2-1.7-3.8-3.9-4.6-6.8-.9-2.8-1.3-6-1.3-9.5v-20c0-3.8.4-7.2,1.3-10,.9-2.8,2.4-5.1,4.6-6.6,2.2-1.6,5.3-2.3,9.3-2.3s6.4.7,8.4,2c2.1,1.3,3.6,3.2,4.5,5.6.9,2.4,1.4,5.3,1.4,8.8v4.5h-7.5v-4c0-2.1-.1-4-.3-5.6s-.8-2.9-1.7-3.7c-.9-.9-2.5-1.3-4.7-1.3s-3.9.5-4.9,1.4c-1,1-1.7,2.3-2,4.1-.3,1.8-.5,3.8-.5,6.1v22.5c0,2.8.2,5.1.7,6.8.5,1.7,1.2,2.8,2.3,3.5,1.1.7,2.5,1,4.3,1s3.7-.5,4.6-1.4c.9-1,1.5-2.3,1.8-4,.2-1.7.4-3.6.4-5.9v-4.2h7.5v4.2c0,3.5-.4,6.5-1.3,9.1-.8,2.6-2.3,4.7-4.3,6.2-2.1,1.5-4.9,2.2-8.7,2.2Z"/>
    <path class="st2" d="M106.3,167.6v-56.7h21.9v5.7h-14v18.9h10.8v5.6h-10.8v26.5h-7.9Z"/>
    <path class="st2" d="M133.7,167.6v-56.7h14.1c3.4,0,6.1.6,8.2,1.9,2,1.2,3.5,3,4.4,5.4.9,2.3,1.4,5.2,1.4,8.5s-.5,5.6-1.6,7.8c-1,2.2-2.6,3.9-4.7,5.1-2.1,1.2-4.6,1.8-7.7,1.8h-6.2v26.4h-7.9ZM141.6,135.6h3.6c2.3,0,4.1-.3,5.4-.8,1.3-.5,2.2-1.4,2.8-2.7.6-1.3.8-3.1.8-5.4s-.2-4.8-.6-6.2c-.4-1.4-1.2-2.4-2.5-3s-3.2-.8-5.9-.8h-3.7v19Z"/>
    <path class="st2" d="M161,167.6l12-56.7h7.6l12.1,56.7h-7.5l-2.6-14.3h-11.5l-2.7,14.3h-7.4ZM172.2,147.7h9.5l-4.8-25.5-4.7,25.5Z"/>
  </g>
  <g>
    <g>
      <path class="st1" d="M129.5,8.2c39.8-.6,75.2,15.1,100.3,46.2,9.2,11.4,22.2,34.1,24.4,48.5.1.7.3,3.1-.6,3.1h-38.4c-1,0-3.4-7.1-4.1-8.4-12.8-26.2-36.9-45.1-66-49.8-5.3-.9-10.5-1.1-15.6-2.1V8.2Z"/>
      <path class="st0" d="M129.5,8.2v37.4c-2.3-.5-13.7,1-16.7,1.6-4.9.9-23.1,6.4-26.5,9.4s-2.3,1.6-3.2,1.9c-1.4.6-6.2,4.1-7.8,5.2-11.5,8.4-20.4,20.6-27.3,32.7-.8,1.4-3.8,9.1-4.7,9.1H5.7c.1-4.5,2.1-9.3,3.6-13.6C28,40.8,75.3,9,129.5,8.2Z"/>
    </g>
    <g>
      <path class="st0" d="M129,265.8v-36.9c.6,0,7.8-.9,9.2-1,28.5-3,54.1-17.6,69-41.8,1.7-2.7,3.5-5.3,4.6-8.3.3-.5,1.8-1.3,2.2-1.3h36.9c.7,0,.8,1.6.7,2.2-.5,4.8-7.3,17.9-9.9,22.6-22.8,40.5-66.4,65-112.9,64.6Z"/>
      <path class="st1" d="M129,228.9v36.9c-50.1-.5-95.4-29-116.2-74.7-1.1-2.5-4.7-10.4-5-12.5s.1-1.6.7-1.6h38.4c3.1,4.1,5.3,8.9,8.3,13.1,17.5,24.8,44.1,36.3,73.8,38.8Z"/>
    </g>
  </g>
</svg>