<?xml version="1.0" encoding="UTF-8"?>
<svg id="Layer_1" xmlns="http://www.w3.org/2000/svg" version="1.1" viewBox="0 0 265 274">
  <!-- Generator: Adobe Illustrator 29.5.1, SVG Export Plug-In . SVG Version: 2.1.0 Build 141)  -->
  <defs>
    <style>
      .st0 {
        fill: #f8b7cc;
      }

      .st1 {
        font-family: Poppins-Medium, Poppins;
        font-size: 74.5px;
        font-weight: 500;
      }
    </style>
  </defs>
  <text class="st1" transform="translate(36.5 166.1)"><tspan x="0" y="0">CFPA</tspan></text>
  <path d="M132,0c42.3-.6,80,16.1,106.7,49.1,9.8,12.1,23.6,36.3,25.9,51.6.1.8.4,3.3-.7,3.3h-40.9c-1,0-3.6-7.5-4.3-9-13.6-27.8-39.3-48-70.2-53-5.6-.9-11.2-1.2-16.6-2.3V0Z"/>
  <path class="st0" d="M132,0v39.8c-2.5-.5-14.6,1.1-17.7,1.7-5.2.9-24.6,6.8-28.1,10s-2.4,1.7-3.4,2c-1.5.6-6.6,4.3-8.3,5.5-12.3,8.9-21.7,22-29,34.8s-4,9.7-5,9.7H.3c.1-4.8,2.2-9.9,3.9-14.5C24,34.7,74.3.9,132,0Z"/>
  <path class="st0" d="M131.4,274v-39.3c.7,0,8.3-.9,9.8-1.1,30.3-3.2,57.6-18.7,73.4-44.4,1.8-2.9,3.7-5.7,4.9-8.9.3-.5,1.9-1.4,2.3-1.4h39.3c.7,0,.9,1.7.8,2.3-.5,5.1-7.7,19.1-10.5,24-24.3,43.1-70.6,69.2-120.1,68.7Z"/>
  <path d="M131.4,234.7v39.3c-53.3-.6-101.5-30.8-123.6-79.5s-5-11-5.3-13.3.1-1.7.7-1.7h40.9c3.3,4.4,5.7,9.5,8.9,14,18.6,26.3,46.9,38.6,78.5,41.2Z"/>
</svg>