<?xml version="1.0" encoding="UTF-8"?><svg id="Layer_1" xmlns="http://www.w3.org/2000/svg" viewBox="0 0 248.57 257.6"><defs><style>.cls-1{fill:#e1b255;}.cls-2{fill:#3b4a69;}.cls-3{fill:#fff;font-family:Oswald-Regular, Oswald;font-size:70px;font-variation-settings:'wght' 400;}.cls-4{letter-spacing:-.04em;}</style></defs><text class="cls-3" transform="translate(60.13 159.43)"><tspan x="0" y="0">CF</tspan><tspan class="cls-4" x="63.42" y="0">P</tspan><tspan x="93.87" y="0">A</tspan></text><path class="cls-2" d="M123.79.02c39.77-.58,75.24,15.12,100.32,46.18,9.19,11.38,22.23,34.1,24.35,48.53.11.73.33,3.12-.63,3.12h-38.44c-.95,0-3.4-7.05-4.06-8.42-12.77-26.16-36.94-45.09-65.97-49.84-5.29-.87-10.53-1.1-15.58-2.14V.02Z"/><path class="cls-1" d="M123.79.02v37.44c-2.31-.47-13.69,1.03-16.66,1.56-4.93.87-23.12,6.4-26.45,9.39-.51.46-2.27,1.55-3.17,1.92-1.44.59-6.22,4.05-7.79,5.19-11.52,8.4-20.39,20.64-27.3,32.73-.79,1.38-3.76,9.11-4.73,9.11H0c.12-4.51,2.06-9.32,3.62-13.6C22.31,32.6,69.59.8,123.79.02Z"/><path class="cls-1" d="M123.3,257.59v-36.94c.64.05,7.77-.85,9.23-1,28.45-2.98,54.13-17.58,69.04-41.78,1.68-2.72,3.48-5.32,4.65-8.33.32-.47,1.8-1.3,2.19-1.3h36.94c.67,0,.81,1.55.74,2.2-.49,4.81-7.26,17.92-9.89,22.59-22.81,40.53-66.42,65.04-112.9,64.56Z"/><path class="cls-2" d="M123.3,220.65v36.94c-50.14-.52-95.41-29-116.24-74.7-1.12-2.46-4.73-10.38-4.98-12.54-.07-.61.13-1.62.66-1.62h38.44c3.13,4.15,5.33,8.9,8.33,13.14,17.52,24.77,44.13,36.3,73.79,38.78Z"/></svg>