<?xml version="1.0" encoding="UTF-8"?><svg id="Layer_1" xmlns="http://www.w3.org/2000/svg" viewBox="0 0 264.4 274"><defs><style>.cls-1{font-family:Poppins-Medium, Poppins;font-size:74.46px;font-weight:500;}.cls-1,.cls-2{fill:#fff;}.cls-3{fill:#f8b7cc;}</style></defs><text class="cls-1" transform="translate(36.15 166.06)"><tspan x="0" y="0">CFPA</tspan></text><path class="cls-2" d="M131.68.02c42.31-.61,80.03,16.08,106.71,49.12,9.77,12.11,23.65,36.27,25.9,51.62.11.78.35,3.32-.67,3.32h-40.88c-1.01,0-3.61-7.5-4.32-8.95-13.58-27.82-39.29-47.96-70.17-53.01-5.62-.92-11.2-1.17-16.57-2.28V.02Z"/><path class="cls-3" d="M131.68.02v39.82c-2.45-.5-14.57,1.1-17.72,1.66-5.25.93-24.59,6.81-28.14,9.98-.55.49-2.41,1.65-3.37,2.04-1.54.63-6.62,4.31-8.28,5.52-12.26,8.93-21.69,21.96-29.04,34.82-.84,1.47-4,9.69-5.03,9.69H0c.13-4.8,2.19-9.91,3.85-14.47C23.73,34.68,74.02.85,131.68.02Z"/><path class="cls-3" d="M131.15,273.99v-39.29c.68.06,8.26-.9,9.82-1.07,30.27-3.17,57.58-18.7,73.44-44.44,1.78-2.9,3.7-5.65,4.94-8.86.34-.5,1.92-1.38,2.33-1.38h39.29c.72,0,.86,1.65.79,2.34-.53,5.11-7.72,19.06-10.52,24.03-24.26,43.11-70.64,69.18-120.09,68.67Z"/><path class="cls-2" d="M131.15,234.7v39.29c-53.33-.56-101.48-30.85-123.64-79.45-1.19-2.62-5.03-11.04-5.29-13.34-.07-.64.14-1.72.71-1.72h40.88c3.33,4.41,5.67,9.46,8.86,13.97,18.63,26.34,46.94,38.61,78.48,41.25Z"/></svg>